<svg width="58" height="58" viewBox="0 0 58 58" fill="none" xmlns="http://www.w3.org/2000/svg">
<circle cx="29" cy="29" r="29" fill="#25C935" fill-opacity="0.2"/>
<path d="M32.1813 19.1021V24.0104H30.2438V19.1021C30.2438 18.7533 29.9338 18.5854 29.7271 18.5854C29.6625 18.5854 29.5979 18.5983 29.5333 18.6242L19.2904 22.4863C18.6058 22.7446 18.1667 23.3904 18.1667 24.1267V24.9921C16.9913 25.8704 16.2292 27.2783 16.2292 28.8671V24.1267C16.2292 22.5896 17.1721 21.2204 18.6058 20.6779L28.8617 16.8029C29.1458 16.6996 29.4429 16.6479 29.7271 16.6479C31.0188 16.6479 32.1813 17.6942 32.1813 19.1021Z" fill="#25C935"/>
<path d="M40.7708 32.7292V34.0208C40.7708 34.3696 40.4996 34.6538 40.1379 34.6667H38.2521C37.5675 34.6667 36.9475 34.1629 36.8958 33.4913C36.8571 33.0908 37.0121 32.7163 37.2704 32.4579C37.5029 32.2125 37.8258 32.0833 38.1746 32.0833H40.125C40.4996 32.0963 40.7708 32.3804 40.7708 32.7292Z" fill="#25C935"/>
<path d="M38.1617 30.7271H39.4792C40.1896 30.7271 40.7708 30.1458 40.7708 29.4354V28.8671C40.7708 26.1933 38.5879 24.0104 35.9142 24.0104H21.0858C19.9879 24.0104 18.9804 24.3721 18.1667 24.9921C16.9913 25.8704 16.2292 27.2783 16.2292 28.8671V37.56C16.2292 40.2337 18.4121 42.4167 21.0858 42.4167H35.9142C38.5879 42.4167 40.7708 40.2337 40.7708 37.56V37.3146C40.7708 36.6042 40.1896 36.0229 39.4792 36.0229H38.3554C37.1154 36.0229 35.9271 35.2608 35.6042 34.0596C35.3329 33.0779 35.6558 32.135 36.3017 31.5021C36.7796 31.0112 37.4383 30.7271 38.1617 30.7271ZM31.0833 30.4687H22.0417C21.5121 30.4687 21.0729 30.0296 21.0729 29.5C21.0729 28.9704 21.5121 28.5312 22.0417 28.5312H31.0833C31.6129 28.5312 32.0521 28.9704 32.0521 29.5C32.0521 30.0296 31.6129 30.4687 31.0833 30.4687Z" fill="#25C935"/>
</svg>
